<?xml version="1.0" encoding="utf-8"?>
<!-- Generator: Adobe Illustrator 16.0.0, SVG Export Plug-In . SVG Version: 6.00 Build 0)  -->
<!DOCTYPE svg PUBLIC "-//W3C//DTD SVG 1.1//EN" "http://www.w3.org/Graphics/SVG/1.1/DTD/svg11.dtd">
<svg version="1.1" id="Layer_1" xmlns="http://www.w3.org/2000/svg" xmlns:xlink="http://www.w3.org/1999/xlink" x="0px" y="0px"
	 width="2560px" height="2560px" viewBox="0 0 2560 2560" enable-background="new 0 0 2560 2560" xml:space="preserve">
<g>
	<path fill="#E6E6E6" d="M1896.805,1198.997c-87.24,0-158.215-70.976-158.215-158.216s70.975-158.215,158.215-158.215
		s158.216,70.975,158.216,158.215S1984.045,1198.997,1896.805,1198.997z M1896.805,907.193
		c-73.661,0-133.588,59.927-133.588,133.588s59.927,133.589,133.588,133.589s133.589-59.928,133.589-133.589
		S1970.466,907.193,1896.805,907.193z"/>
</g>
<g>
	<path fill="#E6E6E6" d="M1811.267,685.781L1647.695,556.21l129.572-163.57l163.569,129.57L1811.267,685.781z M1682.291,552.197
		l124.964,98.989l98.986-124.964l-124.962-98.988L1682.291,552.197z"/>
</g>
<g>
	<path fill="#E6E6E6" d="M1416.687,1060.876c-7.564,0-14.89-2.24-21.183-6.477c-8.412-5.666-14.114-14.267-16.057-24.22
		c-1.942-9.954,0.108-20.067,5.774-28.479l43.442-64.511c7.067-10.496,18.849-16.762,31.514-16.762
		c7.565,0,14.891,2.24,21.183,6.478c8.412,5.664,14.114,14.266,16.057,24.219s-0.107,20.067-5.772,28.479l-43.444,64.511
		C1441.134,1054.609,1429.353,1060.876,1416.687,1060.876z M1460.178,945.055c-4.458,0-8.604,2.202-11.088,5.892l-43.443,64.512
		c-1.991,2.956-2.711,6.509-2.028,10.005c0.682,3.497,2.686,6.52,5.641,8.51c2.212,1.489,4.781,2.276,7.428,2.276
		c4.459,0,8.604-2.202,11.087-5.89l43.445-64.512c1.99-2.955,2.71-6.509,2.028-10.006c-0.683-3.497-2.687-6.519-5.643-8.51
		C1465.393,945.843,1462.824,945.055,1460.178,945.055z"/>
</g>
<g>
	<path fill="#E6E6E6" d="M818.233,945.055c-47.525,0-86.189-38.664-86.189-86.188c0-47.524,38.664-86.188,86.189-86.188
		c47.524,0,86.188,38.664,86.188,86.188C904.421,906.391,865.757,945.055,818.233,945.055z M818.233,797.306
		c-33.946,0-61.563,27.616-61.563,61.562c0,33.944,27.617,61.561,61.563,61.561c33.945,0,61.562-27.616,61.562-61.561
		C879.795,824.922,852.179,797.306,818.233,797.306z"/>
</g>
<g>
	<polygon fill="#E6E6E6" points="905.592,495.571 882.122,456.723 824.765,478.231 761.359,400.125 780.479,384.604 832.714,448.95 
		892.624,426.484 916.386,465.813 969.555,447.519 977.568,470.805 	"/>
</g>
<g>
	<path fill="#E6E6E6" d="M1380.435,599.149c-29.804-23.12-35.242-66.176-12.123-95.979c23.123-29.802,66.177-35.239,95.979-12.122
		l-15.094,19.458c-19.073-14.796-46.63-11.315-61.428,7.758c-14.796,19.074-11.315,46.63,7.759,61.427L1380.435,599.149z"/>
</g>
<g>
	<path fill="#E6E6E6" d="M1221.864,1369.83c-15.092,0-29.671-4.967-41.79-14.367c-29.803-23.119-35.241-66.175-12.122-95.978
		l19.458,15.094c-14.796,19.074-11.316,46.63,7.758,61.426c9.241,7.169,20.719,10.31,32.32,8.844
		c11.602-1.466,21.938-7.361,29.106-16.601l19.458,15.094c-11.199,14.438-27.351,23.649-45.479,25.938
		C1227.662,1369.648,1224.752,1369.83,1221.864,1369.83z"/>
</g>
<g>
	<path fill="#E6E6E6" d="M1062.863,938.253l-68.809-105.395l188.236-122.894l68.809,105.395L1062.863,938.253z M1028.137,840.017
		l41.884,64.152l146.995-95.968l-41.884-64.153L1028.137,840.017z"/>
</g>
<g>
	
		<rect x="1458.402" y="769.071" transform="matrix(0.9447 0.3278 -0.3278 0.9447 343.9253 -477.6191)" fill="#E6E6E6" width="260.666" height="24.626"/>
</g>
<g>
	<path fill="#E6E6E6" d="M708,1373H415v-293h293V1373z M440,1348h243v-243H440V1348z"/>
</g>
<g>
	<path fill="#E6E6E6" d="M1750.674,1514.323c-54.034,0-97.994-43.96-97.994-97.993c0-54.034,43.96-97.995,97.994-97.995
		c54.033,0,97.993,43.961,97.993,97.995C1848.667,1470.363,1804.707,1514.323,1750.674,1514.323z M1750.674,1342.962
		c-40.455,0-73.367,32.913-73.367,73.368c0,40.454,32.912,73.366,73.367,73.366c40.454,0,73.366-32.912,73.366-73.366
		C1824.04,1375.875,1791.128,1342.962,1750.674,1342.962z"/>
</g>
<g>
	<polygon fill="#E6E6E6" points="2185.114,1498.866 2182.601,1474.368 2380.745,1454.044 2354.006,1373.827 2445.749,1351.586 
		2431.743,1283.893 2455.858,1278.902 2474.688,1369.91 2385.838,1391.45 2413.825,1475.407 	"/>
</g>
<g>
	<path fill="#E6E6E6" d="M1486.964,281.691c-3.717,0-7.418-0.544-11.002-1.618l-148.753-44.554
		c-9.802-2.936-17.874-9.513-22.729-18.52c-4.855-9.007-5.913-19.366-2.978-29.168c4.819-16.088,19.905-27.323,36.688-27.323
		c3.716,0,7.417,0.544,11,1.617l148.754,44.553c20.233,6.06,31.766,27.452,25.707,47.688
		C1518.833,270.455,1503.746,281.691,1486.964,281.691z M1338.19,185.135c-5.99,0-11.375,4.015-13.098,9.763
		c-1.048,3.5-0.67,7.199,1.063,10.416c1.734,3.217,4.618,5.566,8.119,6.615l148.753,44.554c1.289,0.386,2.613,0.582,3.936,0.582
		c5.989,0,11.374-4.015,13.096-9.763c2.164-7.227-1.954-14.867-9.181-17.032l-148.754-44.553
		C1340.836,185.331,1339.512,185.135,1338.19,185.135z"/>
</g>
<g>
	<path fill="#E6E6E6" d="M314,423H199V186h115V423z M224,398h65V211h-65V398z"/>
</g>
<g>
	
		<rect x="451.552" y="355.325" transform="matrix(0.8897 0.4565 -0.4565 0.8897 293.4059 -153.2518)" fill="#E6E6E6" width="24.626" height="350.536"/>
</g>
<g>
	<path fill="#E6E6E6" d="M3581.65,713.996c-87.24,0-158.215-70.975-158.215-158.215c0-87.24,70.975-158.214,158.215-158.214
		c87.241,0,158.217,70.975,158.217,158.214C3739.867,643.021,3668.892,713.996,3581.65,713.996z M3581.65,422.193
		c-73.661,0-133.588,59.928-133.588,133.588c0,73.661,59.927,133.589,133.588,133.589c73.662,0,133.59-59.928,133.59-133.589
		C3715.24,482.121,3655.313,422.193,3581.65,422.193z"/>
</g>
<g>
	<path fill="#E6E6E6" d="M3496.113,200.781L3332.542,71.21l129.571-163.57l163.569,129.569L3496.113,200.781z M3367.138,67.197
		l124.964,98.989l98.986-124.965l-124.963-98.987L3367.138,67.197z"/>
</g>
<g>
	<path fill="#E6E6E6" d="M3101.533,575.875c-7.565,0-14.891-2.239-21.183-6.477c-8.412-5.665-14.114-14.266-16.057-24.219
		c-1.942-9.954,0.107-20.068,5.772-28.479l43.443-64.511c7.067-10.496,18.849-16.762,31.514-16.762
		c7.565,0,14.891,2.24,21.184,6.478c17.363,11.693,21.977,35.333,10.285,52.696l-43.445,64.512
		C3125.979,569.61,3114.197,575.875,3101.533,575.875z M3145.023,460.055c-4.459,0-8.604,2.202-11.088,5.891l-43.443,64.511
		c-1.99,2.955-2.71,6.508-2.028,10.005c0.683,3.497,2.687,6.519,5.642,8.509c2.212,1.49,4.78,2.277,7.428,2.277
		c4.459,0,8.604-2.202,11.088-5.891l43.444-64.511c4.107-6.101,2.486-14.406-3.614-18.515
		C3150.238,460.842,3147.67,460.055,3145.023,460.055z"/>
</g>
<g>
	<path fill="#E6E6E6" d="M2503.079,460.054c-47.524,0-86.188-38.663-86.188-86.187c0-47.524,38.664-86.188,86.188-86.188
		s86.188,38.664,86.188,86.188C2589.268,421.391,2550.604,460.054,2503.079,460.054z M2503.079,312.304
		c-33.945,0-61.562,27.617-61.562,61.563c0,33.945,27.616,61.561,61.562,61.561s61.562-27.616,61.562-61.561
		C2564.641,339.921,2537.024,312.304,2503.079,312.304z"/>
</g>
<g>
	<polygon fill="#E6E6E6" points="2590.438,10.57 2566.968,-28.278 2509.611,-6.769 2446.206,-84.875 2465.325,-100.396 
		2517.561,-36.051 2577.47,-58.517 2601.231,-19.187 2654.402,-37.481 2662.414,-14.195 	"/>
</g>
<g>
	<path fill="#E6E6E6" d="M3065.28,114.147c-14.438-11.199-23.649-27.351-25.939-45.479c-2.289-18.128,2.618-36.063,13.818-50.5
		c23.12-29.803,66.178-35.238,95.978-12.121l-15.094,19.458c-19.072-14.795-46.629-11.316-61.427,7.758
		c-7.168,9.24-10.308,20.717-8.843,32.319c1.466,11.602,7.361,21.939,16.601,29.106L3065.28,114.147z"/>
</g>
<g>
	<path fill="#E6E6E6" d="M2906.772,884.792c-14.651,0-29.405-4.674-41.852-14.328c-29.803-23.121-35.239-66.178-12.122-95.979
		l19.459,15.094c-14.796,19.074-11.315,46.63,7.758,61.428c19.074,14.796,46.628,11.314,61.426-7.759l19.457,15.094
		C2947.435,875.698,2927.205,884.792,2906.772,884.792z"/>
</g>
<g>
	<path fill="#E6E6E6" d="M2747.709,453.251L2678.9,347.858l188.236-122.894l68.81,105.394L2747.709,453.251z M2712.984,355.017
		l41.883,64.152l146.995-95.968l-41.884-64.153L2712.984,355.017z"/>
</g>
<g>
	<path fill="#E6E6E6" d="M3319.503,1609.813c-30.16,0-58.516-16.055-74.003-41.899c-24.426-40.767-11.133-93.805,29.633-118.232
		c13.395-8.025,28.688-12.267,44.229-12.267c30.16,0,58.517,16.055,74.002,41.9c11.833,19.747,15.268,42.921,9.671,65.252
		c-5.597,22.332-19.556,41.146-39.305,52.979C3350.338,1605.571,3335.045,1609.813,3319.503,1609.813z M3319.362,1462.041
		c-11.084,0-22.001,3.031-31.571,8.766c-29.118,17.447-38.613,55.332-21.166,84.449c11.23,18.742,30.998,29.932,52.878,29.932
		c11.084,0,22.001-3.031,31.57-8.766c14.106-8.451,24.076-21.891,28.074-37.841c3.997-15.95,1.544-32.503-6.908-46.608
		C3361.01,1473.23,3341.243,1462.041,3319.362,1462.041z"/>
</g>
<g>
	<path fill="#E6E6E6" d="M2739.906,1235.08c-2.762,0-5.538-0.166-8.323-0.502c-37.447-4.512-64.242-38.65-59.729-76.1l24.449,2.945
		c-2.888,23.969,14.261,45.817,38.227,48.705c11.616,1.399,23.071-1.807,32.27-9.026c9.199-7.22,15.036-17.591,16.436-29.201
		l24.449,2.947c-2.187,18.141-11.307,34.345-25.68,45.626C2769.837,1230.024,2755.135,1235.08,2739.906,1235.08z"/>
</g>
<g>
	<path fill="#E6E6E6" d="M3206.753,1386.163l-202.17-98.304l55.043-113.196l202.168,98.304L3206.753,1386.163z M3037.499,1276.48
		l157.875,76.767l33.504-68.901l-157.875-76.767L3037.499,1276.48z"/>
</g>
<g>
	
		<rect x="3143.248" y="284.071" transform="matrix(0.9447 0.3278 -0.3278 0.9447 278.0354 -1056.7169)" fill="#E6E6E6" width="260.666" height="24.626"/>
</g>
<g>
	<path fill="#E6E6E6" d="M2393,888h-293V595h293V888z M2125,863h243V620h-243V863z"/>
</g>
<g>
	<path fill="#E6E6E6" d="M3435.52,1029.323c-54.033,0-97.993-43.96-97.993-97.994s43.96-97.994,97.993-97.994
		s97.993,43.96,97.993,97.994S3489.553,1029.323,3435.52,1029.323z M3435.52,857.962c-40.454,0-73.366,32.912-73.366,73.367
		s32.912,73.367,73.366,73.367s73.366-32.912,73.366-73.367S3475.974,857.962,3435.52,857.962z"/>
</g>
<g>
	<polygon fill="#E6E6E6" points="3447.209,1712.292 3444.697,1687.794 3642.841,1667.471 3616.102,1587.254 3707.845,1565.014 
		3693.839,1497.319 3717.954,1492.329 3736.784,1583.338 3647.934,1604.877 3675.921,1688.834 	"/>
</g>
<g>
	<path fill="#E6E6E6" d="M3171.809-203.31c-3.716,0-7.416-0.544-10.999-1.617l-148.755-44.554
		c-9.802-2.936-17.874-9.513-22.729-18.52c-4.854-9.007-5.912-19.366-2.977-29.168c4.819-16.087,19.904-27.323,36.687-27.323
		c3.717,0,7.419,0.544,11.002,1.618l148.753,44.551c20.235,6.063,31.767,27.456,25.707,47.689
		C3203.678-214.545,3188.592-203.31,3171.809-203.31z M3023.035-299.864c-5.988,0-11.374,4.014-13.096,9.762
		c-1.048,3.5-0.671,7.2,1.063,10.417c1.734,3.217,4.617,5.566,8.117,6.614l148.755,44.554c1.288,0.386,2.612,0.582,3.934,0.582
		c5.99,0,11.375-4.015,13.098-9.763c2.164-7.226-1.955-14.867-9.183-17.033l-148.753-44.551
		C3025.681-299.668,3024.356-299.864,3023.035-299.864z"/>
</g>
<g>
	<path fill="#E6E6E6" d="M1999-62h-115v-237h115V-62z M1909-87h65v-187h-65V-87z"/>
</g>
<g>
	
		<rect x="2136.399" y="-129.675" transform="matrix(0.8897 0.4565 -0.4565 0.8897 257.8204 -975.9608)" fill="#E6E6E6" width="24.626" height="350.535"/>
</g>
<g>
	<path fill="#E6E6E6" d="M-1080.548,618.959c-7.566,0-14.891-2.24-21.184-6.478c-8.411-5.663-14.114-14.265-16.056-24.218
		s0.108-20.067,5.772-28.479l43.444-64.51c7.067-10.496,18.849-16.762,31.514-16.762c7.565,0,14.89,2.24,21.182,6.476
		c8.413,5.667,14.115,14.268,16.057,24.22c1.942,9.954-0.108,20.067-5.773,28.479l-43.443,64.512
		C-1056.103,612.693-1067.883,618.959-1080.548,618.959z M-1037.057,503.138c-4.459,0-8.604,2.202-11.088,5.891l-43.445,64.51
		c-1.99,2.956-2.71,6.509-2.028,10.006c0.683,3.497,2.686,6.519,5.641,8.508c2.214,1.491,4.782,2.278,7.429,2.278
		c4.458,0,8.604-2.202,11.087-5.89l43.443-64.513c1.991-2.956,2.711-6.508,2.029-10.005c-0.683-3.497-2.686-6.52-5.642-8.511
		C-1031.842,503.926-1034.41,503.138-1037.057,503.138z"/>
</g>
<g>
	<path fill="#E6E6E6" d="M-438.604,766.71c-47.524,0-86.188-38.664-86.188-86.188s38.664-86.188,86.188-86.188
		s86.188,38.664,86.188,86.188S-391.079,766.71-438.604,766.71z M-438.604,618.959c-33.945,0-61.562,27.617-61.562,61.562
		s27.617,61.562,61.562,61.562s61.562-27.616,61.562-61.562S-404.658,618.959-438.604,618.959z"/>
</g>
<g>
	<polygon fill="#E6E6E6" points="-400.85,1154.783 -453.084,1090.438 -512.994,1112.905 -536.757,1073.574 -589.926,1091.868 
		-597.938,1068.581 -525.963,1043.816 -502.492,1082.665 -445.136,1061.156 -381.73,1139.262 	"/>
</g>
<g>
	<path fill="#E6E6E6" d="M-1042.81,1062.668c-14.651,0.001-29.406-4.674-41.852-14.327l15.094-19.459
		c19.074,14.796,46.63,11.315,61.427-7.758c7.167-9.239,10.308-20.718,8.843-32.319c-1.465-11.603-7.361-21.939-16.601-29.106
		l15.094-19.459c14.438,11.2,23.649,27.352,25.939,45.479s-2.618,36.063-13.817,50.5
		C-1002.148,1053.575-1022.377,1062.668-1042.81,1062.668z"/>
</g>
<g>
	<path fill="#E6E6E6" d="M-788.323,279.903l-19.458-15.094c7.167-9.24,10.308-20.718,8.842-32.32
		c-1.465-11.602-7.36-21.938-16.6-29.105c-9.24-7.169-20.719-10.307-32.32-8.844c-11.602,1.465-21.938,7.361-29.105,16.6
		l-19.458-15.094c11.199-14.438,27.351-23.649,45.479-25.938c18.127-2.29,36.062,2.618,50.5,13.818
		c14.437,11.199,23.649,27.35,25.938,45.478C-772.217,247.531-777.124,265.465-788.323,279.903z"/>
</g>
<g>
	<path fill="#E6E6E6" d="M-802.661,829.425l-68.809-105.396l188.236-122.893l68.809,105.395L-802.661,829.425z M-837.387,731.187
		l41.884,64.154l146.995-95.969l-41.884-64.153L-837.387,731.187z"/>
</g>
<g>
	<g>
		<polygon fill="#E6E6E6" points="-1082.072,789.091 -1090.211,812.362 -1179,781.58 -1179,755.504 		"/>
	</g>
</g>
<g>
	<path fill="#E6E6E6" d="M-35,459h-293V166h293V459z M-303,434h243V191h-243V434z"/>
</g>
<g>
	<path fill="#E6E6E6" d="M-958.56,1378.879c-3.717,0-7.418-0.544-11.001-1.617l-148.753-44.553
		c-9.802-2.936-17.874-9.513-22.729-18.521c-4.855-9.008-5.913-19.366-2.977-29.168c4.818-16.088,19.905-27.323,36.688-27.323
		c3.716,0,7.417,0.544,11,1.616l148.754,44.554c9.802,2.936,17.874,9.513,22.729,18.52c4.856,9.008,5.913,19.366,2.977,29.168
		C-926.691,1367.643-941.777,1378.879-958.56,1378.879z M-1107.333,1282.323c-5.99,0-11.375,4.015-13.097,9.763
		c-1.048,3.5-0.671,7.2,1.063,10.418c1.734,3.217,4.617,5.565,8.117,6.613l148.754,44.553c1.29,0.387,2.614,0.583,3.936,0.583
		c5.989,0,11.374-4.016,13.096-9.764c1.049-3.501,0.671-7.2-1.063-10.417s-4.617-5.565-8.117-6.613l-148.754-44.554
		C-1104.688,1282.519-1106.011,1282.323-1107.333,1282.323z"/>
</g>
<g>
	<path fill="#E6E6E6" d="M180,1354H65v-237h115V1354z M90,1329h65v-187H90V1329z"/>
</g>
<g>
	
		<rect x="-96.549" y="833.526" transform="matrix(0.0622 0.9981 -0.9981 0.0622 927.8436 1030.1404)" fill="#E6E6E6" width="24.626" height="350.536"/>
</g>
<g>
	<path fill="#E6E6E6" d="M-522.548,2121.398c-87.24,0-158.215-70.975-158.215-158.215s70.975-158.215,158.215-158.215
		s158.215,70.975,158.215,158.215S-435.308,2121.398-522.548,2121.398z M-522.548,1829.596
		c-73.661,0-133.589,59.927-133.589,133.588s59.928,133.588,133.589,133.588s133.589-59.927,133.589-133.588
		S-448.887,1829.596-522.548,1829.596z"/>
</g>
<g>
	<path fill="#E6E6E6" d="M-85.921,2083.537c-7.565,0-14.891-2.239-21.183-6.478c-8.412-5.665-14.114-14.266-16.056-24.219
		c-1.943-9.954,0.107-20.068,5.772-28.479l43.445-64.512c7.067-10.495,18.848-16.761,31.513-16.761
		c7.565,0,14.891,2.24,21.183,6.478c8.413,5.665,14.115,14.267,16.057,24.22c1.942,9.953-0.108,20.067-5.773,28.478l-43.442,64.513
		C-61.476,2077.272-73.256,2083.537-85.921,2083.537z M-42.43,1967.716c-4.458,0-8.604,2.202-11.087,5.891l-43.445,64.512
		c-1.99,2.955-2.71,6.508-2.028,10.005c0.682,3.498,2.686,6.521,5.642,8.511c2.212,1.489,4.781,2.277,7.427,2.277
		c4.459,0,8.604-2.202,11.088-5.891l43.442-64.513c1.991-2.955,2.711-6.508,2.029-10.004c-0.682-3.497-2.686-6.52-5.642-8.511
		C-37.215,1968.504-39.783,1967.716-42.43,1967.716z"/>
</g>
<g>
	<g>
		<path fill="#E6E6E6" d="M556.021,2059.535c-38.567,0-71.3,25.465-82.265,60.465h26.343c9.762-21,31.159-35.838,55.922-35.838
			c24.77,0,46.168,14.838,55.93,35.838h26.343C627.328,2085,594.588,2059.535,556.021,2059.535z"/>
	</g>
</g>
<g>
	<path fill="#E6E6E6" d="M206.303,1744.481l-19.458-15.096c7.168-9.239,10.308-20.717,8.843-32.318
		c-1.465-11.602-7.36-21.938-16.601-29.107c-9.239-7.167-20.717-10.305-32.319-8.843c-11.602,1.466-21.938,7.361-29.106,16.602
		l-19.458-15.094c11.199-14.438,27.35-23.65,45.478-25.939c18.129-2.295,36.063,2.617,50.5,13.817
		c14.437,11.199,23.649,27.352,25.938,45.479C222.41,1712.11,217.503,1730.044,206.303,1744.481z"/>
</g>
<g>
	<path fill="#E6E6E6" d="M-956.178,2023.288c-37.415-4.777-63.968-39.104-59.191-76.52c2.314-18.125,11.548-34.264,26.001-45.443
		c14.453-11.18,32.394-16.063,50.519-13.748l-3.119,24.428c-11.598-1.478-23.082,1.644-32.332,8.799s-15.16,17.484-16.641,29.084
		c-3.057,23.946,13.937,45.915,37.882,48.973L-956.178,2023.288z"/>
</g>
<g>
	<g>
		<path fill="#E6E6E6" d="M311.393,2066.342L229.21,2120h45.039l29.989-19.578L317.023,2120h29.401L311.393,2066.342z"/>
	</g>
</g>
<g>
	<path fill="#E6E6E6" d="M960,1924H666v-293h294V1924z M691,1899h244v-243H691V1899z"/>
</g>
<g>
	<path fill="#E6E6E6" d="M-376.417,1685.63c-54.033,0-97.993-43.96-97.993-97.993c0-54.034,43.959-97.994,97.993-97.994
		c54.034,0,97.994,43.96,97.994,97.994C-278.423,1641.67-322.383,1685.63-376.417,1685.63z M-376.417,1514.27
		c-40.455,0-73.367,32.912-73.367,73.367c0,40.454,32.912,73.366,73.367,73.366c40.455,0,73.368-32.912,73.368-73.366
		C-303.049,1547.182-335.962,1514.27-376.417,1514.27z"/>
</g>
<g>
	<polygon fill="#E6E6E6" points="-1081.603,1725.063 -1100.431,1634.057 -1011.582,1612.517 -1039.568,1528.559 -810.857,1505.101 
		-808.344,1529.599 -1006.489,1549.922 -979.749,1630.14 -1071.492,1652.381 -1057.487,1720.073 	"/>
</g>
<g>
	<g>
		<path fill="#E6E6E6" d="M2010.906,1969.652c-29.881-29.887-69.611-46.338-111.872-46.338c-42.262,0-81.992,16.451-111.878,46.338
			c-29.881,29.88-46.339,69.923-46.339,112.185c0,12.922,1.546,26.163,4.535,38.163h25.55c-3.557-12-5.459-25.022-5.459-38.163
			c0-73.66,59.932-133.739,133.591-133.739s133.591,60.158,133.591,133.818c0,13.14-1.902,26.084-5.459,38.084h25.549
			c2.99-12,4.536-25.241,4.536-38.163C2057.251,2039.575,2040.793,1999.532,2010.906,1969.652z"/>
	</g>
</g>
<g>
	<g>
		<path fill="#E6E6E6" d="M2416.391,2092.44c-1.943-9.953-7.641-18.708-16.055-24.374c-6.294-4.24-13.62-6.556-21.186-6.556
			c-12.662,0-24.441,6.54-31.515,17.034L2319.903,2120h29.688l18.47-27.737c2.49-3.688,6.628-6.046,11.089-6.046
			c2.647,0,5.219,0.708,7.429,2.198c2.955,1.99,4.959,4.976,5.644,8.472c0.678,3.496-0.041,7.34-2.031,10.295l-8.436,12.818h29.655
			C2416.473,2111,2418.244,2101.907,2416.391,2092.44z"/>
	</g>
</g>
<g>
	<path fill="#E6E6E6" d="M2627.886,1862.824l-19.459-15.094c14.796-19.074,11.316-46.631-7.758-61.428
		c-19.075-14.796-46.631-11.314-61.425,7.758l-19.459-15.094c23.121-29.804,66.176-35.24,95.979-12.122
		C2645.566,1789.966,2651.004,1833.021,2627.886,1862.824z"/>
</g>
<g>
	<path fill="#E6E6E6" d="M3381,2042h-293v-293h293V2042z M3113,2017h243v-243h-243V2017z"/>
</g>
<g>
	<path fill="#E6E6E6" d="M2045.165,1803.974c-54.034,0-97.994-43.96-97.994-97.994s43.96-97.994,97.994-97.994
		s97.994,43.96,97.994,97.994S2099.199,1803.974,2045.165,1803.974z M2045.165,1632.612c-40.455,0-73.367,32.912-73.367,73.367
		s32.912,73.367,73.367,73.367s73.367-32.912,73.367-73.367S2085.62,1632.612,2045.165,1632.612z"/>
</g>
<g>
	<polygon fill="#E6E6E6" points="1339.979,1843.407 1321.149,1752.398 1410,1730.858 1382.014,1646.902 1610.725,1623.444 
		1613.236,1647.942 1415.094,1668.266 1441.832,1748.481 1350.089,1770.723 1364.095,1838.417 	"/>
</g>
<g>
	<path fill="#E6E6E6" d="M102.512-182.386l-163.57-129.57l129.57-163.569l163.571,129.569L102.512-182.386z M-26.463-315.969
		L98.5-216.98l98.989-124.963L72.524-440.931L-26.463-315.969z"/>
</g>
<g>
	<g>
		<path fill="#E6E6E6" d="M1142.181-678.987c-0.007-0.028-0.021-0.013-0.028-0.013h-27.15c0.013,0,0.026-0.016,0.041,0.013
			c5.13,8.98,8.065,19.34,8.065,30.408c0,33.943-27.615,61.544-61.565,61.544c-33.943,0-61.559-27.625-61.559-61.568
			c0-11.068,2.935-21.399,8.065-30.381c0.014-0.027,0.027-0.016,0.041-0.016H980.94c-0.007,0-0.021-0.016-0.027,0.013
			c-3.592,9.467-5.555,19.696-5.555,30.408c0,47.522,38.663,86.17,86.185,86.17c47.529,0,86.192-38.64,86.192-86.162
			C1147.735-659.283,1145.772-669.521,1142.181-678.987z"/>
	</g>
</g>
<g>
	<polygon fill="#E6E6E6" points="1099.3,-174.351 1047.065,-238.696 987.155,-216.229 963.393,-255.56 910.224,-237.266 
		902.211,-260.552 974.187,-285.317 997.657,-246.468 1055.014,-267.979 1118.419,-189.872 	"/>
</g>
<g>
	<path fill="#E6E6E6" d="M457.34-266.465c-14.651,0-29.407-4.674-41.853-14.329l15.094-19.458
		c19.074,14.795,46.63,11.314,61.427-7.758c7.168-9.24,10.308-20.717,8.843-32.319c-1.465-11.602-7.361-21.939-16.601-29.106
		l15.094-19.458c14.438,11.199,23.649,27.351,25.939,45.479c2.29,18.128-2.618,36.063-13.817,50.5
		C498.001-275.559,477.773-266.466,457.34-266.465z"/>
</g>
<g>
	<g>
		<path fill="#E6E6E6" d="M848.868-678.987L848.82-679h-29.401l0.048,0.013l32.172,49.255l-146.992,95.958l-41.885-64.167
			l124.226-81.043l0.116-0.016h-45.039l-0.116,0.013l-113.268,73.914l68.81,105.379l188.233-122.868L848.868-678.987z"/>
	</g>
</g>
<g>
	
		<rect x="160.712" y="-583.443" transform="matrix(0.9447 0.3278 -0.3278 0.9447 -171.1362 -126.9615)" fill="#E6E6E6" width="260.665" height="24.626"/>
</g>
<g>
	<path fill="#E6E6E6" d="M541.589,49.745c-3.717,0-7.418-0.544-11.001-1.618L381.834,3.575
		c-20.234-6.06-31.766-27.453-25.706-47.688c4.819-16.087,19.906-27.323,36.688-27.323c3.715,0,7.416,0.543,10.999,1.616
		L552.57-25.267c20.235,6.061,31.766,27.453,25.706,47.688C573.458,38.509,558.371,49.745,541.589,49.745z M392.817-46.81
		c-5.99,0-11.376,4.015-13.098,9.763c-2.165,7.227,1.954,14.867,9.181,17.031l148.753,44.553c1.29,0.386,2.614,0.582,3.936,0.582
		c5.989,0,11.375-4.015,13.096-9.763c2.164-7.227-1.954-14.867-9.181-17.031L396.751-46.229
		C395.463-46.614,394.139-46.81,392.817-46.81z"/>
</g>
<g>
	<path fill="#E6E6E6" d="M1681,24h-116v-236h116V24z M1590-1h66v-186h-66V-1z"/>
</g>
<g>
	
		<rect x="1240.644" y="-332.652" transform="matrix(0.0939 0.9956 -0.9956 0.0939 964.0212 -1699.9106)" fill="#E6E6E6" width="350.536" height="24.626"/>
</g>
<g>
	<g>
		<path fill="#E6E6E6" d="M2132.86-678.987l-0.097-0.013h-39.647l0.097,0.013l16.232,12.828l-98.991,124.948l-124.964-98.998
			l30.762-38.775l0.062-0.016h-31.412l-0.062,0.013l-33.943,42.818l163.573,129.552l129.568-163.542L2132.86-678.987z"/>
	</g>
</g>
<g>
	<polygon fill="#E6E6E6" points="3011.255,-498.597 2959.02,-562.942 2899.11,-540.475 2875.348,-579.806 2822.178,-561.511 
		2814.166,-584.797 2886.141,-609.563 2909.612,-570.714 2966.969,-592.224 3030.374,-514.117 	"/>
</g>
<g>
	<g>
		<path fill="#E6E6E6" d="M2423.423-617.164c-13.47,17.362-33.696,26.453-54.13,26.453c-14.646,0-29.408-4.673-41.851-14.332
			l15.097-19.455c7.963,6.178,17.41,9.167,26.781,9.174c13.079,0,26.021-5.822,34.641-16.931c7.17-9.242,10.309-20.656,8.846-32.258
			c-0.65-5.158-2.176-10.487-4.488-14.487h26.48c1.129,4,1.949,7.476,2.442,11.401
			C2439.525-649.471,2434.621-631.598,2423.423-617.164z"/>
	</g>
</g>
<g>
	<path fill="#E6E6E6" d="M2453.544-274.5c-3.716,0-7.418-0.544-11.001-1.618l-148.754-44.553
		c-9.801-2.935-17.873-9.512-22.729-18.52s-5.913-19.366-2.978-29.168c4.819-16.087,19.905-27.323,36.688-27.323
		c3.716,0,7.416,0.544,10.999,1.617l148.755,44.553c9.802,2.936,17.874,9.513,22.729,18.52c4.855,9.007,5.912,19.366,2.976,29.168
		C2485.413-285.737,2470.326-274.5,2453.544-274.5z M2304.771-371.056c-5.99,0-11.375,4.015-13.098,9.763
		c-1.048,3.5-0.67,7.2,1.063,10.417c1.734,3.217,4.617,5.565,8.117,6.614l148.755,44.553c1.289,0.386,2.613,0.582,3.935,0.582
		c5.989,0,11.374-4.015,13.096-9.763c1.049-3.501,0.672-7.2-1.063-10.417c-1.734-3.217-4.617-5.566-8.118-6.615l-148.754-44.553
		C2307.417-370.86,2306.093-371.056,2304.771-371.056z"/>
</g>
<g>
	<path fill="#E6E6E6" d="M3593-300h-116v-236h116V-300z M3502-325h66v-186h-66V-325z"/>
</g>
<g>
	<g>
		<polygon fill="#E6E6E6" points="3384.688,-478.264 3360.883,-471.917 3305.967,-679 3331.447,-679 		"/>
	</g>
</g>
<g>
	<g>
		<path fill="#E6E6E6" d="M-643.962-678.987c-0.014-0.028-0.027-0.013-0.048-0.013h-30.865l0.075,0.013
			c11.103,11.143,17.977,26.475,17.977,43.405c0,33.944-27.615,61.543-61.565,61.543c-33.943,0-61.559-27.623-61.559-61.566
			c0-16.93,6.875-32.235,17.977-43.379c0.028-0.027,0.048-0.016,0.076-0.016h-30.865c-0.021,0-0.035-0.016-0.048,0.013
			c-7.477,12.757-11.766,27.576-11.766,43.405c0,47.523,38.663,86.17,86.185,86.17c47.528,0,86.192-38.64,86.192-86.162
			C-632.196-651.402-636.485-666.23-643.962-678.987z"/>
	</g>
</g>
<g>
	<polygon fill="#E6E6E6" points="-680.631,-161.353 -732.866,-225.699 -792.776,-203.231 -816.538,-242.563 -869.708,-224.268 
		-877.72,-247.554 -805.744,-272.32 -782.273,-233.471 -724.917,-254.981 -661.511,-176.873 	"/>
</g>
<g>
	<g>
		<path fill="#E6E6E6" d="M-939.546-678.987l-0.047-0.013h-29.408l0.048,0.013l40.661,62.251l-146.991,95.958l-41.885-64.166
			l144.139-94.041l0.116-0.016h-45.045l-0.116,0.013l-133.173,86.912l68.81,105.379l188.233-122.869L-939.546-678.987z"/>
	</g>
</g>
<g>
	<path fill="#E6E6E6" d="M-99,37h-116v-236h116V37z M-190,12h66v-186h-66V12z"/>
</g>
<g>
	
		<rect x="-539.286" y="-319.656" transform="matrix(0.9459 0.3244 -0.3244 0.9459 -119.3734 101.4576)" fill="#E6E6E6" width="350.536" height="24.627"/>
</g>
</svg>
