<?xml version="1.0" encoding="utf-8"?>
<!-- Generator: Adobe Illustrator 16.0.0, SVG Export Plug-In . SVG Version: 6.00 Build 0)  -->
<!DOCTYPE svg PUBLIC "-//W3C//DTD SVG 1.1//EN" "http://www.w3.org/Graphics/SVG/1.1/DTD/svg11.dtd">
<svg version="1.1" id="Layer_1" xmlns="http://www.w3.org/2000/svg" xmlns:xlink="http://www.w3.org/1999/xlink" x="0px" y="0px"
	 width="114.508px" height="117.338px" viewBox="0 0 114.508 117.338" enable-background="new 0 0 114.508 117.338"
	 xml:space="preserve">
<g>
	<path fill="#D7D7FF" d="M108.167,110.995c-4.686,4.686-12.285,4.686-16.971,0l-90.51-90.51C-4,15.799-4,8.2,0.686,3.514l0,0
		c4.686-4.686,12.285-4.686,16.971,0l90.51,90.51C112.852,98.709,112.852,106.309,108.167,110.995L108.167,110.995z"/>
	<path fill="#D7D7FF" d="M3.514,113.823c-4.686-4.686-4.686-12.284,0-16.971l90.51-90.51c4.687-4.686,12.285-4.686,16.971,0l0,0
		c4.686,4.687,4.686,12.285,0,16.971l-90.51,90.51C15.799,118.509,8.201,118.509,3.514,113.823L3.514,113.823z"/>
</g>
</svg>
